<?xml version="1.0" standalone="no"?><!DOCTYPE svg PUBLIC "-//W3C//DTD SVG 1.1//EN" "http://www.w3.org/Graphics/SVG/1.1/DTD/svg11.dtd"><svg t="1611110006026" class="icon" viewBox="0 0 1028 1024" version="1.1" xmlns="http://www.w3.org/2000/svg" p-id="938" xmlns:xlink="http://www.w3.org/1999/xlink" width="200.78125" height="200"><defs><style type="text/css"></style></defs><path d="M890.88 947.2c-20.48 0-40.96-20.48-40.96-40.96s20.48-40.96 40.96-40.96 40.96 20.48 40.96 40.96c0 25.6-20.48 40.96-40.96 40.96z m-640-737.28l701.44-10.24-15.36 76.8H266.24l-15.36-66.56z m665.6 133.12l-66.56 286.72H348.16L281.6 343.04h634.88zM322.56 947.2c-20.48 0-40.96-20.48-40.96-40.96s20.48-40.96 40.96-40.96 40.96 20.48 40.96 40.96c0 25.6-20.48 40.96-40.96 40.96z m-5.12-245.76h537.6c30.72 0 56.32-20.48 66.56-46.08L1024 215.04c10.24-20.48 0-35.84-10.24-56.32-10.24-20.48-35.84-30.72-56.32-30.72H230.4L204.8 15.36H40.96C20.48 15.36 0 25.6 0 46.08c0 20.48 20.48 40.96 40.96 40.96h107.52l128 542.72c-30.72 20.48-66.56 61.44-66.56 112.64 0 25.6 10.24 56.32 30.72 76.8-15.36 20.48-30.72 51.2-30.72 76.8 0 66.56 51.2 122.88 112.64 122.88s117.76-56.32 117.76-117.76c0-10.24 0-20.48-5.12-25.6 0-5.12-5.12-15.36-5.12-20.48h353.28c-5.12 15.36-5.12 30.72-5.12 46.08 0 61.44 51.2 117.76 117.76 117.76 61.44 0 117.76-51.2 117.76-117.76 0-61.44-40.96-107.52-107.52-117.76H327.68c-20.48 0-46.08-20.48-46.08-46.08-5.12 0 10.24-35.84 35.84-35.84z" fill="#333333" p-id="939"></path></svg>